<svg width="16" height="14" viewBox="0 0 16 14" fill="none" xmlns="http://www.w3.org/2000/svg">
<path d="M12.3122 14.0005C12.2069 14.0009 12.1042 13.9681 12.0187 13.9067L7.99966 10.993L3.9806 13.9067C3.89474 13.969 3.79129 14.0024 3.68522 14.002C3.57915 14.0016 3.47595 13.9675 3.39054 13.9046C3.30513 13.8417 3.24193 13.7532 3.21009 13.6521C3.17825 13.5509 3.17942 13.4422 3.21341 13.3417L4.78091 8.69891L0.718413 5.91298C0.630416 5.8527 0.564002 5.76586 0.528872 5.66515C0.493743 5.56444 0.491741 5.45513 0.523158 5.3532C0.554575 5.25127 0.617764 5.16206 0.703494 5.0986C0.789224 5.03514 0.893001 5.00076 0.999663 5.00048H6.01154L7.52404 0.34579C7.55662 0.245296 7.6202 0.157706 7.70564 0.0955837C7.79109 0.0334614 7.89402 0 7.99966 0C8.10531 0 8.20823 0.0334614 8.29368 0.0955837C8.37913 0.157706 8.44271 0.245296 8.47529 0.34579L9.98779 5.00204H14.9997C15.1065 5.00199 15.2105 5.03613 15.2964 5.09947C15.3824 5.16281 15.4459 5.25201 15.4775 5.35402C15.5091 5.45603 15.5072 5.56548 15.4721 5.66634C15.437 5.76721 15.3706 5.85419 15.2825 5.91454L11.2184 8.69891L12.785 13.3405C12.8104 13.4156 12.8175 13.4957 12.8058 13.5742C12.7941 13.6526 12.7639 13.7272 12.7177 13.7917C12.6715 13.8561 12.6107 13.9087 12.5401 13.945C12.4696 13.9813 12.3915 14.0003 12.3122 14.0005Z" fill="#FFC23D"/>
</svg>
